# xmcd
#
# Track frame offsets:
#	300
#	17625
#	35676
#	51891
#	69072
#	84981
#	107379
#	125544
#	143076
#	163474
#	179951
#	198775
#	215953
#	234119
#	253418
#	272186
#	291663
#	307693
#
# Disc length: 4354 seconds
#
# Revision: 2
# Processed by: cddbd v1.5.2PL0 Copyright (c) Steve Scherf et al.
# Submitted via: audiograbber 1.83.01
#
DISCID=1010fe12
DTITLE=Various Artist - SFG353
DYEAR=2015
DGENRE=Karaoke
TTITLE0=Deorro and Chris Brown - Five more hours
TTITLE1=Flo Rida f. Robin Thicke - I don't like it I love it
TTITLE2=Walk the moon - Shut up and dance
TTITLE3=Lawson - Roads
TTITLE4=Duke Dumount - The giver (reprise)
TTITLE5=Eminem - Phenomenal
TTITLE6=Hozier - Someone new
TTITLE7=Leona Lewis - Fire under my feet
TTITLE8=Years and Years - Shine
TTITLE9=Rita Ora - Poison
TTITLE10=Tinie Tempah f. Jess Glynne - Not letting go
TTITLE11=Little Mix - Black Magic
TTITLE12=Rixton - We all want the same thing
TTITLE13=Kelly Clarkson - Invincible
TTITLE14=Avicii - Waiting for love
TTITLE15=Zedd f. Selena Gomez - I want you to know
TTITLE16=Ariana Grande - One last time
TTITLE17=Florence and The Machine - Ship to wreck
EXTD=
EXTT0=
EXTT1=
EXTT2=
EXTT3=
EXTT4=
EXTT5=
EXTT6=
EXTT7=
EXTT8=
EXTT9=
EXTT10=
EXTT11=
EXTT12=
EXTT13=
EXTT14=
EXTT15=
EXTT16=
EXTT17=
PLAYORDER=
